# File created by Blade
# Date/Time:  Thu Jan 22 19:13:14 2015
# Frame Rate: 120.000 fps
#------------------------------------------------------
:FULLY-SPECIFIED
:DEGREES
1284
root 2.780414 31.342515 -0.992433 10.352379 -3.295704 0.592593
RightUpLeg -3.901359 -32.917421 -13.025131
RightLeg -3.449575 -0.000000 0.000000
RightFoot -4.408085 -1.058305 12.619012
RightToeBase 9.629909 -0.000000 -0.000000
LeftUpLeg -6.334976 14.703747 19.987948
LeftLeg 4.112808 -0.000000 -0.000000
LeftFoot -6.069293 -1.278914 -29.396587
LeftToeBase 8.130096 -0.000000 -0.000000
Spine -9.242861 3.962247 3.241506
RightShoulder -17.034054 -11.133830 -27.642530
RightArm 23.042883 41.979450 55.986168
RightForeArm 19.557029 -0.000000 16.854643
RightHand 19.072330 -0.000000 -2.786228
RightHandThumb1 -24.326973 -0.000000 -32.862282
LeftShoulder -27.005910 8.770298 27.117264
LeftArm 0.970847 -44.909748 -32.043122
LeftForeArm -0.943911 -0.000000 3.297296
LeftHand -2.662721 -0.000000 0.722148
LeftHandThumb1 -26.253704 0.000000 33.147579
Head -5.668694 -3.118320 -8.364774
1285
root 2.774164 31.331939 -0.981318 10.279609 -3.413503 0.577178
RightUpLeg -3.779144 -32.969979 -13.055258
RightLeg -3.618493 -0.000000 0.000000
RightFoot -4.227713 -1.014659 13.025793
RightToeBase 9.818290 -0.000000 -0.000000
LeftUpLeg -6.200976 14.713854 20.048540
LeftLeg 4.167625 -0.000000 -0.000000
LeftFoot -6.185503 -1.290256 -29.544030
LeftToeBase 8.229228 -0.000000 -0.000000
Spine -9.105757 4.031034 3.201536
RightShoulder -17.012087 -11.112834 -27.599357
RightArm 23.251095 41.893467 56.239748
RightForeArm 19.639758 0.000000 16.769983
RightHand 19.179015 -0.000000 -2.836366
RightHandThumb1 -24.326973 -0.000000 -32.862282
LeftShoulder -27.008684 8.720980 27.080397
LeftArm 0.925966 -44.921345 -32.347281
LeftForeArm -0.831603 -0.000000 3.170420
LeftHand -2.892615 -0.000000 0.639225
LeftHandThumb1 -26.253704 0.000000 33.147579
Head -5.891620 -3.150903 -8.255735
1286
root 2.766308 31.322027 -0.972127 10.207259 -3.520826 0.551734
RightUpLeg -3.637660 -33.108283 -13.063497
RightLeg -3.838917 -0.000000 0.000000
RightFoot -4.031687 -0.881435 13.368232
RightToeBase 9.899212 -0.000000 -0.000000
LeftUpLeg -6.082734 14.687290 20.115107
LeftLeg 4.234582 -0.000000 -0.000000
LeftFoot -6.326704 -1.230559 -29.614074
LeftToeBase 8.154838 -0.000000 -0.000000
Spine -8.964168 4.109357 3.165253
RightShoulder -16.976635 -11.102684 -27.566876
RightArm 23.363681 41.830146 56.511157
RightForeArm 19.684825 -0.000000 16.874938
RightHand 19.061706 0.000000 -3.110335
RightHandThumb1 -24.326973 -0.000000 -32.862282
LeftShoulder -27.013179 8.787775 27.003013
LeftArm 1.031857 -44.854632 -32.755702
LeftForeArm -0.774849 -0.000000 2.982135
LeftHand -2.854946 0.000000 0.514319
LeftHandThumb1 -26.253704 0.000000 33.147579
Head -6.088151 -3.223979 -8.145366
1287
root 2.757270 31.313984 -0.966711 10.186609 -3.643892 0.510957
RightUpLeg -3.549831 -33.181380 -13.025723
RightLeg -4.079020 -0.000000 0.000000
RightFoot -3.825451 -0.822258 13.620305
RightToeBase 10.013753 -0.000000 -0.000000
LeftUpLeg -6.012396 14.687649 20.181310
LeftLeg 4.307100 -0.000000 -0.000000
LeftFoot -6.492793 -1.198035 -29.673002
LeftToeBase 8.233012 -0.000000 -0.000000
Spine -8.869497 4.172288 3.135795
RightShoulder -16.917636 -11.108657 -27.528201
RightArm 23.508578 41.719726 56.720009
RightForeArm 19.726123 -0.000000 16.826252
RightHand 19.181112 -0.000000 -3.079231
RightHandThumb1 -24.326973 -0.000000 -32.862282
LeftShoulder -27.092791 8.969822 26.870771
LeftArm 1.337674 -44.787779 -33.309250
LeftForeArm -1.008587 -0.000000 2.818679
LeftHand -2.955152 -0.000000 0.667500
LeftHandThumb1 -26.253704 0.000000 33.147579
Head -6.303174 -3.234194 -8.010291
1288
root 2.748113 31.307901 -0.965499 10.209422 -3.742720 0.468784
RightUpLeg -3.498584 -33.201980 -12.970852
RightLeg -4.306414 -0.000000 0.000000
RightFoot -3.642319 -0.707228 13.877384
RightToeBase 10.065047 -0.000000 -0.000000
LeftUpLeg -6.012585 14.669987 20.231332
LeftLeg 4.395625 -0.000000 -0.000000
LeftFoot -6.644311 -1.080778 -29.617572
LeftToeBase 8.140014 -0.000000 -0.000000
Spine -8.812628 4.194420 3.122415
RightShoulder -16.877342 -11.108693 -27.488271
RightArm 23.662336 41.634005 56.971115
RightForeArm 19.741364 -0.000000 16.910662
RightHand 19.216718 -0.000000 -2.922354
RightHandThumb1 -24.326973 -0.000000 -32.862282
LeftShoulder -27.095892 8.963047 26.796031
LeftArm 1.298384 -44.661882 -33.597411
LeftForeArm -0.947995 -0.000000 2.727608
LeftHand -2.927692 -0.000000 0.588544
LeftHandThumb1 -26.253704 0.000000 33.147579
Head -6.517747 -3.240400 -7.903928
